<svg xmlns="http://www.w3.org/2000/svg" width="1200" height="126" viewBox="0 0 1200 126" role="img" aria-label="Open Agentic Game Recommendation project details">
  <rect x="1" y="1" width="1198" height="124" rx="12" fill="#11131a" stroke="#7c6fa8" stroke-opacity=".75"/>
  <rect x="1" y="1" width="7" height="124" rx="3" fill="#7c6fa8"/>
  <g font-family="ui-monospace, SFMono-Regular, Menlo, Consolas, monospace">
    <g transform="translate(32 34)" fill="none" stroke="#a095c3" stroke-width="2"><path d="M8 8h40c8 0 14 7 14 16l-2 14c-1 7-9 9-14 4l-8-8H18l-8 8c-5 5-13 3-14-4l-2-14C-6 15 0 8 8 8z"/><path d="M12 21h14M19 14v14"/><circle cx="45" cy="19" r="2" fill="#a095c3"/><circle cx="52" cy="26" r="2" fill="#a095c3"/></g>
    <text x="112" y="31" fill="#a095c3" font-size="11" letter-spacing="1.4">02 / AGENTS · RECOMMENDATION</text>
    <text x="112" y="61" fill="#edf0f2" font-size="20" font-weight="700">Agentic Game Recommendation System</text>
    <text x="112" y="88" fill="#8f99a4" font-size="13">Intent-aware discovery with hybrid retrieval, learned ranking, and Steam context</text>
    <rect x="743" y="26" width="151" height="25" rx="12" fill="#1c1927" stroke="#544b75"/><text x="818" y="43" text-anchor="middle" fill="#b6add0" font-size="10">HYBRID RETRIEVAL</text>
    <rect x="906" y="26" width="126" height="25" rx="12" fill="#1c1927" stroke="#544b75"/><text x="969" y="43" text-anchor="middle" fill="#b6add0" font-size="10">STEAM CONTEXT</text>
    <rect x="1003" y="72" width="158" height="31" rx="6" fill="#29233d" stroke="#7c6fa8"/><text x="1082" y="92" text-anchor="middle" fill="#c8c0dc" font-size="11" letter-spacing="1">OPEN BRIEF  +</text>
  </g>
</svg>
